<?xml version="1.0" encoding="iso-8859-1"?>
<!-- Generator: Adobe Illustrator 18.1.1, SVG Export Plug-In . SVG Version: 6.00 Build 0)  -->
<svg version="1.1" id="Capa_1" xmlns="http://www.w3.org/2000/svg" xmlns:xlink="http://www.w3.org/1999/xlink" x="0px" y="0px"
	 viewBox="0 0 499.233 499.233" style="enable-background:new 0 0 499.233 499.233;" xml:space="preserve">
<g>
	<g fill="#007dcc">
		<path d="M133.45,365.783c3.4,3.4,7.65,5.1,11.9,5.1s8.783-1.7,11.9-5.1l92.367-92.367l92.367,92.367c3.4,3.4,7.65,5.1,11.9,5.1
			s8.783-1.7,11.9-5.1c6.517-6.517,6.517-17.283,0-24.083L273.7,249.617l92.083-92.367c6.517-6.517,6.517-17.283,0-24.083
			c-6.517-6.8-17.283-6.517-24.083,0l-92.083,92.367L157.25,133.45c-6.517-6.517-17.283-6.517-24.083,0
			c-6.517,6.517-6.517,17.283,0,24.083l92.367,92.083l-92.083,92.367C126.65,348.5,126.65,359.267,133.45,365.783z"/>
		<path d="M249.617,499.233c137.7,0,249.617-111.917,249.617-249.617S387.317,0,249.617,0S0,111.917,0,249.617
			S111.917,499.233,249.617,499.233z M249.617,34c119,0,215.617,96.617,215.617,215.617s-96.617,215.617-215.617,215.617
			S34,368.617,34,249.617S130.617,34,249.617,34z"/>
	</g>
</g>
</svg>
