<?xml version="1.0" encoding="utf-8"?>
<svg viewBox="0 0 22 16" xmlns="http://www.w3.org/2000/svg" xmlns:xlink="http://www.w3.org/1999/xlink">
<path fill="#007dcc" d="M11.034,0.297c-0.241-0.326-0.687-0.386-1.012-0.145L0.289,7.413C0.108,7.546,0,7.763,0,7.992
	c0,0.229,0.108,0.446,0.289,0.579l9.733,7.273c0.133,0.097,0.277,0.145,0.434,0.145c0.217,0,0.434-0.097,0.578-0.289
	c0.241-0.326,0.169-0.772-0.145-1.013L1.927,7.992l8.962-6.694C11.203,1.069,11.275,0.61,11.034,0.297z"/>
<path fill="#007dcc" d="M21.857,0.297c-0.241-0.326-0.687-0.386-1.012-0.145l-9.733,7.261c-0.181,0.133-0.289,0.35-0.289,0.579
	c0,0.229,0.108,0.446,0.289,0.579l9.733,7.273c0.133,0.097,0.277,0.145,0.434,0.145c0.217,0,0.434-0.097,0.578-0.289
	c0.241-0.326,0.169-0.772-0.145-1.013L12.75,7.992l8.962-6.694C22.025,1.069,22.098,0.61,21.857,0.297z"/>
</svg>
