<?xml version="1.0" encoding="iso-8859-1"?>
<!-- Generator: Adobe Illustrator 16.0.0, SVG Export Plug-In . SVG Version: 6.00 Build 0)  -->
<!DOCTYPE svg PUBLIC "-//W3C//DTD SVG 1.1//EN" "http://www.w3.org/Graphics/SVG/1.1/DTD/svg11.dtd">
<svg version="1.1" id="Capa_1" xmlns="http://www.w3.org/2000/svg" xmlns:xlink="http://www.w3.org/1999/xlink" x="0px" y="0px"
	 width="612px" height="612px" viewBox="0 0 612 612" style="enable-background:new 0 0 612 612;" xml:space="preserve">
<g fill="#007dcc">
	<path d="M604.082,57.901c-5.638-3.59-11.6-4.068-17.821-1.323L381.057,147.31L197.292,55.262h-0.662
		c-0.331,0-1.654-0.662-1.978-0.662l-1.654-0.662h-1.978h-1.323c-0.324,0-0.655-0.324-0.655-0.654c-0.331,0-0.992,0.654-1.323,0.654
		h-1.978c-0.993,0-1.647,0.331-1.978,0.662h-0.662L12.205,113.328C3.914,116.179,0,121.908,0,130.48v371.492
		c0,6.265,2.288,11.247,7.256,14.844c4.596,3.329,10.382,4.821,16.829,2.64l165.613-56.082l174.53,88.416
		c3.632,4.617,8.249,6.926,13.527,6.926c4.287,0,7.918-1.315,11.22-3.955l211.475-85.784c7.446-3.02,11.55-8.241,11.55-17.152
		V72.745C612,66.15,609.332,61.244,604.082,57.901z M170.898,431.04L36.29,476.24V143.678l134.608-46.517V431.04z M359.28,508.567
		L207.188,431.04V101.117l152.092,75.888V508.567L359.28,508.567z M575.71,439.943l-179.809,72.256V180.298l179.809-79.182V439.943
		L575.71,439.943z"/>
</g>
</svg>
