<?xml version="1.0" encoding="iso-8859-1"?>
<!-- Generator: Adobe Illustrator 16.0.0, SVG Export Plug-In . SVG Version: 6.00 Build 0)  -->
<!DOCTYPE svg PUBLIC "-//W3C//DTD SVG 1.1//EN" "http://www.w3.org/Graphics/SVG/1.1/DTD/svg11.dtd">
<svg version="1.1" id="Capa_1" xmlns="http://www.w3.org/2000/svg" xmlns:xlink="http://www.w3.org/1999/xlink" x="0px" y="0px"
	 width="24" height="24" viewBox="0 0 568.403 568.403" style="enable-background:new 0 0 568.403 568.403;"
	 xml:space="preserve">
<g>
	<g fill="#cc4400">
		<path d="M502.054,217.876C502.054,97.531,404.501,0,284.168,0C165.532,0,69.207,94.894,66.535,212.902
			c-0.082-0.039-0.178-0.039-0.251-0.039c-0.052,1.067,0.117,2.143,0.091,3.218c-0.009,0.594-0.091,1.197-0.091,1.795
			c0,2.165,0.269,4.255,0.33,6.393c2.451,141.576,162.473,290.959,217.556,344.134C438.86,442.987,483.89,326.654,496.901,264.623
			c0.478-2.177,0.894-4.341,1.293-6.519c1.258-6.679,2.125-12.669,2.732-17.8c0-0.065,0.017-0.125,0.017-0.187
			C502.565,225.779,502.054,217.876,502.054,217.876L502.054,217.876z"/>
	</g>
</g>
</svg>
